<svg fill="none" height="12" viewBox="0 0 12 12" width="12" xmlns="http://www.w3.org/2000/svg"><path d="m3 2c-.55228 0-1 .44772-1 1v4c0 .55228.44772 1 1 1h.5c.27614 0 .5.22386.5.5v1.06574l2.22265-1.48177c.08213-.05475.17864-.08397.27735-.08397h2.5c.55229 0 1-.44772 1-1v-4c0-.55228-.44771-1-1-1zm-2 1c0-1.10457.89543-2 2-2h6c1.1046 0 2 .89543 2 2v4c0 1.10457-.8954 2-2 2h-2.34861l-2.87404 1.916c-.15343.1023-.3507.1118-.51328.0248s-.26407-.2564-.26407-.4408v-1.5c-1.10457 0-2-.89543-2-2z" fill="#212121"/></svg>